<svg xmlns="http://www.w3.org/2000/svg" width="6304" height="184" viewBox="0 0 6304 184">
<rect width="6304" height="184" fill="#12100E"/>
<text x="4" y="16" fill="#E0543E" font-family="monospace" font-size="12">Bebop v1.0.0 — red-spaceship launch (deterministic, blood #E0543E on void #12100E)</text>
<rect x="152" y="160" width="8" height="8" fill="rgb(224,84,62)"/>
<rect x="160" y="160" width="8" height="8" fill="rgb(224,84,62)"/>
<rect x="168" y="160" width="8" height="8" fill="rgb(224,84,62)"/>
<rect x="144" y="168" width="8" height="8" fill="rgb(224,84,62)"/>
<rect x="160" y="168" width="8" height="8" fill="rgb(224,84,62)"/>
<rect x="176" y="168" width="8" height="8" fill="rgb(224,84,62)"/>
<rect x="484" y="144" width="8" height="8" fill="rgb(224,84,62)"/>
<rect x="492" y="144" width="8" height="8" fill="rgb(224,84,62)"/>
<rect x="500" y="144" width="8" height="8" fill="rgb(224,84,62)"/>
<rect x="476" y="152" width="8" height="8" fill="rgb(224,84,62)"/>
<rect x="484" y="152" width="8" height="8" fill="rgb(224,84,62)"/>
<rect x="492" y="152" width="8" height="8" fill="rgb(224,84,62)"/>
<rect x="500" y="152" width="8" height="8" fill="rgb(224,84,62)"/>
<rect x="508" y="152" width="8" height="8" fill="rgb(224,84,62)"/>
<rect x="484" y="160" width="8" height="8" fill="rgb(224,84,62)"/>
<rect x="492" y="160" width="8" height="8" fill="rgb(224,84,62)"/>
<rect x="500" y="160" width="8" height="8" fill="rgb(224,84,62)"/>
<rect x="816" y="120" width="8" height="8" fill="rgb(224,84,62)"/>
<rect x="824" y="120" width="8" height="8" fill="rgb(224,84,62)"/>
<rect x="832" y="120" width="8" height="8" fill="rgb(224,84,62)"/>
<rect x="808" y="128" width="8" height="8" fill="rgb(224,84,62)"/>
<rect x="816" y="128" width="8" height="8" fill="rgb(224,84,62)"/>
<rect x="824" y="128" width="8" height="8" fill="rgb(224,84,62)"/>
<rect x="832" y="128" width="8" height="8" fill="rgb(224,84,62)"/>
<rect x="840" y="128" width="8" height="8" fill="rgb(224,84,62)"/>
<rect x="816" y="136" width="8" height="8" fill="rgb(224,84,62)"/>
<rect x="824" y="136" width="8" height="8" fill="rgb(224,84,62)"/>
<rect x="832" y="136" width="8" height="8" fill="rgb(224,84,62)"/>
<rect x="816" y="144" width="8" height="8" fill="rgb(224,84,62)"/>
<rect x="824" y="144" width="8" height="8" fill="rgb(224,84,62)"/>
<rect x="832" y="144" width="8" height="8" fill="rgb(224,84,62)"/>
<rect x="816" y="152" width="8" height="8" fill="rgb(224,84,62)"/>
<rect x="824" y="152" width="8" height="8" fill="rgb(224,84,62)"/>
<rect x="832" y="152" width="8" height="8" fill="rgb(224,84,62)"/>
<rect x="816" y="160" width="8" height="8" fill="rgb(224,84,62)"/>
<rect x="824" y="160" width="8" height="8" fill="rgb(232,165,68)"/>
<rect x="832" y="160" width="8" height="8" fill="rgb(224,84,62)"/>
<rect x="1148" y="96" width="8" height="8" fill="rgb(224,84,62)"/>
<rect x="1156" y="96" width="8" height="8" fill="rgb(224,84,62)"/>
<rect x="1164" y="96" width="8" height="8" fill="rgb(224,84,62)"/>
<rect x="1148" y="104" width="8" height="8" fill="rgb(224,84,62)"/>
<rect x="1156" y="104" width="8" height="8" fill="rgb(224,84,62)"/>
<rect x="1164" y="104" width="8" height="8" fill="rgb(224,84,62)"/>
<rect x="1140" y="112" width="8" height="8" fill="rgb(224,84,62)"/>
<rect x="1148" y="112" width="8" height="8" fill="rgb(224,84,62)"/>
<rect x="1156" y="112" width="8" height="8" fill="rgb(224,84,62)"/>
<rect x="1164" y="112" width="8" height="8" fill="rgb(224,84,62)"/>
<rect x="1172" y="112" width="8" height="8" fill="rgb(224,84,62)"/>
<rect x="1148" y="120" width="8" height="8" fill="rgb(224,84,62)"/>
<rect x="1156" y="120" width="8" height="8" fill="rgb(224,84,62)"/>
<rect x="1164" y="120" width="8" height="8" fill="rgb(224,84,62)"/>
<rect x="1148" y="128" width="8" height="8" fill="rgb(224,84,62)"/>
<rect x="1156" y="128" width="8" height="8" fill="rgb(224,84,62)"/>
<rect x="1164" y="128" width="8" height="8" fill="rgb(224,84,62)"/>
<rect x="1148" y="136" width="8" height="8" fill="rgb(224,84,62)"/>
<rect x="1156" y="136" width="8" height="8" fill="rgb(224,84,62)"/>
<rect x="1164" y="136" width="8" height="8" fill="rgb(224,84,62)"/>
<rect x="1148" y="144" width="8" height="8" fill="rgb(224,84,62)"/>
<rect x="1156" y="144" width="8" height="8" fill="rgb(224,84,62)"/>
<rect x="1164" y="144" width="8" height="8" fill="rgb(224,84,62)"/>
<rect x="1148" y="152" width="8" height="8" fill="rgb(224,84,62)"/>
<rect x="1156" y="152" width="8" height="8" fill="rgb(224,84,62)"/>
<rect x="1164" y="152" width="8" height="8" fill="rgb(224,84,62)"/>
<rect x="1148" y="160" width="8" height="8" fill="rgb(224,84,62)"/>
<rect x="1156" y="160" width="8" height="8" fill="rgb(224,84,62)"/>
<rect x="1164" y="160" width="8" height="8" fill="rgb(224,84,62)"/>
<rect x="1480" y="72" width="8" height="8" fill="rgb(224,84,62)"/>
<rect x="1488" y="72" width="8" height="8" fill="rgb(224,84,62)"/>
<rect x="1496" y="72" width="8" height="8" fill="rgb(224,84,62)"/>
<rect x="1480" y="80" width="8" height="8" fill="rgb(224,84,62)"/>
<rect x="1488" y="80" width="8" height="8" fill="rgb(224,84,62)"/>
<rect x="1496" y="80" width="8" height="8" fill="rgb(224,84,62)"/>
<rect x="1472" y="88" width="8" height="8" fill="rgb(224,84,62)"/>
<rect x="1480" y="88" width="8" height="8" fill="rgb(224,84,62)"/>
<rect x="1488" y="88" width="8" height="8" fill="rgb(224,84,62)"/>
<rect x="1496" y="88" width="8" height="8" fill="rgb(224,84,62)"/>
<rect x="1504" y="88" width="8" height="8" fill="rgb(224,84,62)"/>
<rect x="1480" y="96" width="8" height="8" fill="rgb(224,84,62)"/>
<rect x="1488" y="96" width="8" height="8" fill="rgb(224,84,62)"/>
<rect x="1496" y="96" width="8" height="8" fill="rgb(224,84,62)"/>
<rect x="1480" y="104" width="8" height="8" fill="rgb(224,84,62)"/>
<rect x="1488" y="104" width="8" height="8" fill="rgb(224,84,62)"/>
<rect x="1496" y="104" width="8" height="8" fill="rgb(224,84,62)"/>
<rect x="1480" y="112" width="8" height="8" fill="rgb(224,84,62)"/>
<rect x="1488" y="112" width="8" height="8" fill="rgb(224,84,62)"/>
<rect x="1496" y="112" width="8" height="8" fill="rgb(224,84,62)"/>
<rect x="1480" y="120" width="8" height="8" fill="rgb(224,84,62)"/>
<rect x="1488" y="120" width="8" height="8" fill="rgb(224,84,62)"/>
<rect x="1496" y="120" width="8" height="8" fill="rgb(224,84,62)"/>
<rect x="1480" y="128" width="8" height="8" fill="rgb(224,84,62)"/>
<rect x="1488" y="128" width="8" height="8" fill="rgb(224,84,62)"/>
<rect x="1496" y="128" width="8" height="8" fill="rgb(224,84,62)"/>
<rect x="1480" y="136" width="8" height="8" fill="rgb(224,84,62)"/>
<rect x="1488" y="136" width="8" height="8" fill="rgb(224,84,62)"/>
<rect x="1496" y="136" width="8" height="8" fill="rgb(224,84,62)"/>
<rect x="1480" y="144" width="8" height="8" fill="rgb(224,84,62)"/>
<rect x="1488" y="144" width="8" height="8" fill="rgb(224,84,62)"/>
<rect x="1496" y="144" width="8" height="8" fill="rgb(224,84,62)"/>
<rect x="1480" y="152" width="8" height="8" fill="rgb(224,84,62)"/>
<rect x="1488" y="152" width="8" height="8" fill="rgb(224,84,62)"/>
<rect x="1496" y="152" width="8" height="8" fill="rgb(224,84,62)"/>
<rect x="1480" y="160" width="8" height="8" fill="rgb(224,84,62)"/>
<rect x="1488" y="160" width="8" height="8" fill="rgb(232,165,68)"/>
<rect x="1496" y="160" width="8" height="8" fill="rgb(224,84,62)"/>
<rect x="1812" y="48" width="8" height="8" fill="rgb(224,84,62)"/>
<rect x="1820" y="48" width="8" height="8" fill="rgb(224,84,62)"/>
<rect x="1828" y="48" width="8" height="8" fill="rgb(224,84,62)"/>
<rect x="1812" y="56" width="8" height="8" fill="rgb(224,84,62)"/>
<rect x="1820" y="56" width="8" height="8" fill="rgb(224,84,62)"/>
<rect x="1828" y="56" width="8" height="8" fill="rgb(224,84,62)"/>
<rect x="1812" y="64" width="8" height="8" fill="rgb(224,84,62)"/>
<rect x="1820" y="64" width="8" height="8" fill="rgb(224,84,62)"/>
<rect x="1828" y="64" width="8" height="8" fill="rgb(224,84,62)"/>
<rect x="1804" y="72" width="8" height="8" fill="rgb(224,84,62)"/>
<rect x="1812" y="72" width="8" height="8" fill="rgb(224,84,62)"/>
<rect x="1820" y="72" width="8" height="8" fill="rgb(224,84,62)"/>
<rect x="1828" y="72" width="8" height="8" fill="rgb(224,84,62)"/>
<rect x="1836" y="72" width="8" height="8" fill="rgb(224,84,62)"/>
<rect x="1812" y="80" width="8" height="8" fill="rgb(224,84,62)"/>
<rect x="1820" y="80" width="8" height="8" fill="rgb(224,84,62)"/>
<rect x="1828" y="80" width="8" height="8" fill="rgb(224,84,62)"/>
<rect x="1812" y="88" width="8" height="8" fill="rgb(224,84,62)"/>
<rect x="1820" y="88" width="8" height="8" fill="rgb(224,84,62)"/>
<rect x="1828" y="88" width="8" height="8" fill="rgb(224,84,62)"/>
<rect x="1812" y="96" width="8" height="8" fill="rgb(224,84,62)"/>
<rect x="1820" y="96" width="8" height="8" fill="rgb(224,84,62)"/>
<rect x="1828" y="96" width="8" height="8" fill="rgb(224,84,62)"/>
<rect x="1812" y="104" width="8" height="8" fill="rgb(224,84,62)"/>
<rect x="1820" y="104" width="8" height="8" fill="rgb(224,84,62)"/>
<rect x="1828" y="104" width="8" height="8" fill="rgb(224,84,62)"/>
<rect x="1812" y="112" width="8" height="8" fill="rgb(224,84,62)"/>
<rect x="1820" y="112" width="8" height="8" fill="rgb(224,84,62)"/>
<rect x="1828" y="112" width="8" height="8" fill="rgb(224,84,62)"/>
<rect x="1812" y="120" width="8" height="8" fill="rgb(224,84,62)"/>
<rect x="1820" y="120" width="8" height="8" fill="rgb(224,84,62)"/>
<rect x="1828" y="120" width="8" height="8" fill="rgb(224,84,62)"/>
<rect x="1812" y="128" width="8" height="8" fill="rgb(224,84,62)"/>
<rect x="1820" y="128" width="8" height="8" fill="rgb(224,84,62)"/>
<rect x="1828" y="128" width="8" height="8" fill="rgb(224,84,62)"/>
<rect x="1812" y="136" width="8" height="8" fill="rgb(224,84,62)"/>
<rect x="1820" y="136" width="8" height="8" fill="rgb(224,84,62)"/>
<rect x="1828" y="136" width="8" height="8" fill="rgb(224,84,62)"/>
<rect x="1812" y="144" width="8" height="8" fill="rgb(224,84,62)"/>
<rect x="1820" y="144" width="8" height="8" fill="rgb(224,84,62)"/>
<rect x="1828" y="144" width="8" height="8" fill="rgb(224,84,62)"/>
<rect x="1812" y="152" width="8" height="8" fill="rgb(224,84,62)"/>
<rect x="1820" y="152" width="8" height="8" fill="rgb(224,84,62)"/>
<rect x="1828" y="152" width="8" height="8" fill="rgb(224,84,62)"/>
<rect x="1812" y="160" width="8" height="8" fill="rgb(224,84,62)"/>
<rect x="1820" y="160" width="8" height="8" fill="rgb(224,84,62)"/>
<rect x="1828" y="160" width="8" height="8" fill="rgb(224,84,62)"/>
<rect x="2144" y="24" width="8" height="8" fill="rgb(224,84,62)"/>
<rect x="2152" y="24" width="8" height="8" fill="rgb(224,84,62)"/>
<rect x="2160" y="24" width="8" height="8" fill="rgb(224,84,62)"/>
<rect x="2144" y="32" width="8" height="8" fill="rgb(224,84,62)"/>
<rect x="2152" y="32" width="8" height="8" fill="rgb(224,84,62)"/>
<rect x="2160" y="32" width="8" height="8" fill="rgb(224,84,62)"/>
<rect x="2144" y="40" width="8" height="8" fill="rgb(224,84,62)"/>
<rect x="2152" y="40" width="8" height="8" fill="rgb(224,84,62)"/>
<rect x="2160" y="40" width="8" height="8" fill="rgb(224,84,62)"/>
<rect x="2136" y="48" width="8" height="8" fill="rgb(224,84,62)"/>
<rect x="2144" y="48" width="8" height="8" fill="rgb(224,84,62)"/>
<rect x="2152" y="48" width="8" height="8" fill="rgb(224,84,62)"/>
<rect x="2160" y="48" width="8" height="8" fill="rgb(224,84,62)"/>
<rect x="2168" y="48" width="8" height="8" fill="rgb(224,84,62)"/>
<rect x="2144" y="56" width="8" height="8" fill="rgb(224,84,62)"/>
<rect x="2152" y="56" width="8" height="8" fill="rgb(224,84,62)"/>
<rect x="2160" y="56" width="8" height="8" fill="rgb(224,84,62)"/>
<rect x="2144" y="64" width="8" height="8" fill="rgb(224,84,62)"/>
<rect x="2152" y="64" width="8" height="8" fill="rgb(224,84,62)"/>
<rect x="2160" y="64" width="8" height="8" fill="rgb(224,84,62)"/>
<rect x="2144" y="72" width="8" height="8" fill="rgb(224,84,62)"/>
<rect x="2152" y="72" width="8" height="8" fill="rgb(224,84,62)"/>
<rect x="2160" y="72" width="8" height="8" fill="rgb(224,84,62)"/>
<rect x="2144" y="80" width="8" height="8" fill="rgb(224,84,62)"/>
<rect x="2152" y="80" width="8" height="8" fill="rgb(224,84,62)"/>
<rect x="2160" y="80" width="8" height="8" fill="rgb(224,84,62)"/>
<rect x="2144" y="88" width="8" height="8" fill="rgb(224,84,62)"/>
<rect x="2152" y="88" width="8" height="8" fill="rgb(224,84,62)"/>
<rect x="2160" y="88" width="8" height="8" fill="rgb(224,84,62)"/>
<rect x="2144" y="96" width="8" height="8" fill="rgb(224,84,62)"/>
<rect x="2152" y="96" width="8" height="8" fill="rgb(224,84,62)"/>
<rect x="2160" y="96" width="8" height="8" fill="rgb(224,84,62)"/>
<rect x="2144" y="104" width="8" height="8" fill="rgb(224,84,62)"/>
<rect x="2152" y="104" width="8" height="8" fill="rgb(224,84,62)"/>
<rect x="2160" y="104" width="8" height="8" fill="rgb(224,84,62)"/>
<rect x="2144" y="112" width="8" height="8" fill="rgb(224,84,62)"/>
<rect x="2152" y="112" width="8" height="8" fill="rgb(224,84,62)"/>
<rect x="2160" y="112" width="8" height="8" fill="rgb(224,84,62)"/>
<rect x="2144" y="120" width="8" height="8" fill="rgb(224,84,62)"/>
<rect x="2152" y="120" width="8" height="8" fill="rgb(224,84,62)"/>
<rect x="2160" y="120" width="8" height="8" fill="rgb(224,84,62)"/>
<rect x="2144" y="128" width="8" height="8" fill="rgb(224,84,62)"/>
<rect x="2152" y="128" width="8" height="8" fill="rgb(224,84,62)"/>
<rect x="2160" y="128" width="8" height="8" fill="rgb(224,84,62)"/>
<rect x="2144" y="136" width="8" height="8" fill="rgb(224,84,62)"/>
<rect x="2152" y="136" width="8" height="8" fill="rgb(224,84,62)"/>
<rect x="2160" y="136" width="8" height="8" fill="rgb(224,84,62)"/>
<rect x="2144" y="144" width="8" height="8" fill="rgb(224,84,62)"/>
<rect x="2152" y="144" width="8" height="8" fill="rgb(224,84,62)"/>
<rect x="2160" y="144" width="8" height="8" fill="rgb(224,84,62)"/>
<rect x="2144" y="152" width="8" height="8" fill="rgb(224,84,62)"/>
<rect x="2152" y="152" width="8" height="8" fill="rgb(224,84,62)"/>
<rect x="2160" y="152" width="8" height="8" fill="rgb(224,84,62)"/>
<rect x="2144" y="160" width="8" height="8" fill="rgb(224,84,62)"/>
<rect x="2152" y="160" width="8" height="8" fill="rgb(232,165,68)"/>
<rect x="2160" y="160" width="8" height="8" fill="rgb(224,84,62)"/>
</svg>
