<svg xmlns="http://www.w3.org/2000/svg" width="6304" height="184" viewBox="0 0 6304 184">
<rect width="6304" height="184" fill="#12100E"/>
<text x="4" y="16" fill="#E0543E" font-family="monospace" font-size="12">Bebop v1.0.0 — red-spaceship launch (deterministic, blood #E0543E on void #12100E)</text>
<rect x="152" y="160" width="8" height="8" fill="rgb(224,84,62)"/>
<rect x="160" y="160" width="8" height="8" fill="rgb(224,84,62)"/>
<rect x="168" y="160" width="8" height="8" fill="rgb(224,84,62)"/>
<rect x="144" y="168" width="8" height="8" fill="rgb(224,84,62)"/>
<rect x="160" y="168" width="8" height="8" fill="rgb(224,84,62)"/>
<rect x="176" y="168" width="8" height="8" fill="rgb(224,84,62)"/>
<rect x="484" y="160" width="8" height="8" fill="rgb(224,84,62)"/>
<rect x="492" y="160" width="8" height="8" fill="rgb(224,84,62)"/>
<rect x="500" y="160" width="8" height="8" fill="rgb(224,84,62)"/>
<rect x="476" y="168" width="8" height="8" fill="rgb(224,84,62)"/>
<rect x="492" y="168" width="8" height="8" fill="rgb(224,84,62)"/>
<rect x="508" y="168" width="8" height="8" fill="rgb(224,84,62)"/>
<rect x="816" y="152" width="8" height="8" fill="rgb(224,84,62)"/>
<rect x="824" y="152" width="8" height="8" fill="rgb(224,84,62)"/>
<rect x="832" y="152" width="8" height="8" fill="rgb(224,84,62)"/>
<rect x="808" y="160" width="8" height="8" fill="rgb(224,84,62)"/>
<rect x="816" y="160" width="8" height="8" fill="rgb(224,84,62)"/>
<rect x="824" y="160" width="8" height="8" fill="rgb(224,84,62)"/>
<rect x="832" y="160" width="8" height="8" fill="rgb(224,84,62)"/>
<rect x="840" y="160" width="8" height="8" fill="rgb(224,84,62)"/>
<rect x="1148" y="144" width="8" height="8" fill="rgb(224,84,62)"/>
<rect x="1156" y="144" width="8" height="8" fill="rgb(224,84,62)"/>
<rect x="1164" y="144" width="8" height="8" fill="rgb(224,84,62)"/>
<rect x="1140" y="152" width="8" height="8" fill="rgb(224,84,62)"/>
<rect x="1148" y="152" width="8" height="8" fill="rgb(224,84,62)"/>
<rect x="1156" y="152" width="8" height="8" fill="rgb(224,84,62)"/>
<rect x="1164" y="152" width="8" height="8" fill="rgb(224,84,62)"/>
<rect x="1172" y="152" width="8" height="8" fill="rgb(224,84,62)"/>
<rect x="1148" y="160" width="8" height="8" fill="rgb(224,84,62)"/>
<rect x="1156" y="160" width="8" height="8" fill="rgb(224,84,62)"/>
<rect x="1164" y="160" width="8" height="8" fill="rgb(224,84,62)"/>
<rect x="1480" y="136" width="8" height="8" fill="rgb(224,84,62)"/>
<rect x="1488" y="136" width="8" height="8" fill="rgb(224,84,62)"/>
<rect x="1496" y="136" width="8" height="8" fill="rgb(224,84,62)"/>
<rect x="1472" y="144" width="8" height="8" fill="rgb(224,84,62)"/>
<rect x="1480" y="144" width="8" height="8" fill="rgb(224,84,62)"/>
<rect x="1488" y="144" width="8" height="8" fill="rgb(224,84,62)"/>
<rect x="1496" y="144" width="8" height="8" fill="rgb(224,84,62)"/>
<rect x="1504" y="144" width="8" height="8" fill="rgb(224,84,62)"/>
<rect x="1480" y="152" width="8" height="8" fill="rgb(224,84,62)"/>
<rect x="1488" y="152" width="8" height="8" fill="rgb(224,84,62)"/>
<rect x="1496" y="152" width="8" height="8" fill="rgb(224,84,62)"/>
<rect x="1480" y="160" width="8" height="8" fill="rgb(224,84,62)"/>
<rect x="1488" y="160" width="8" height="8" fill="rgb(232,165,68)"/>
<rect x="1496" y="160" width="8" height="8" fill="rgb(224,84,62)"/>
<rect x="1812" y="128" width="8" height="8" fill="rgb(224,84,62)"/>
<rect x="1820" y="128" width="8" height="8" fill="rgb(224,84,62)"/>
<rect x="1828" y="128" width="8" height="8" fill="rgb(224,84,62)"/>
<rect x="1804" y="136" width="8" height="8" fill="rgb(224,84,62)"/>
<rect x="1812" y="136" width="8" height="8" fill="rgb(224,84,62)"/>
<rect x="1820" y="136" width="8" height="8" fill="rgb(224,84,62)"/>
<rect x="1828" y="136" width="8" height="8" fill="rgb(224,84,62)"/>
<rect x="1836" y="136" width="8" height="8" fill="rgb(224,84,62)"/>
<rect x="1812" y="144" width="8" height="8" fill="rgb(224,84,62)"/>
<rect x="1820" y="144" width="8" height="8" fill="rgb(224,84,62)"/>
<rect x="1828" y="144" width="8" height="8" fill="rgb(224,84,62)"/>
<rect x="1812" y="152" width="8" height="8" fill="rgb(224,84,62)"/>
<rect x="1820" y="152" width="8" height="8" fill="rgb(224,84,62)"/>
<rect x="1828" y="152" width="8" height="8" fill="rgb(224,84,62)"/>
<rect x="1812" y="160" width="8" height="8" fill="rgb(224,84,62)"/>
<rect x="1820" y="160" width="8" height="8" fill="rgb(224,84,62)"/>
<rect x="1828" y="160" width="8" height="8" fill="rgb(224,84,62)"/>
<rect x="2144" y="120" width="8" height="8" fill="rgb(224,84,62)"/>
<rect x="2152" y="120" width="8" height="8" fill="rgb(224,84,62)"/>
<rect x="2160" y="120" width="8" height="8" fill="rgb(224,84,62)"/>
<rect x="2136" y="128" width="8" height="8" fill="rgb(224,84,62)"/>
<rect x="2144" y="128" width="8" height="8" fill="rgb(224,84,62)"/>
<rect x="2152" y="128" width="8" height="8" fill="rgb(224,84,62)"/>
<rect x="2160" y="128" width="8" height="8" fill="rgb(224,84,62)"/>
<rect x="2168" y="128" width="8" height="8" fill="rgb(224,84,62)"/>
<rect x="2144" y="136" width="8" height="8" fill="rgb(224,84,62)"/>
<rect x="2152" y="136" width="8" height="8" fill="rgb(224,84,62)"/>
<rect x="2160" y="136" width="8" height="8" fill="rgb(224,84,62)"/>
<rect x="2144" y="144" width="8" height="8" fill="rgb(224,84,62)"/>
<rect x="2152" y="144" width="8" height="8" fill="rgb(224,84,62)"/>
<rect x="2160" y="144" width="8" height="8" fill="rgb(224,84,62)"/>
<rect x="2144" y="152" width="8" height="8" fill="rgb(224,84,62)"/>
<rect x="2152" y="152" width="8" height="8" fill="rgb(224,84,62)"/>
<rect x="2160" y="152" width="8" height="8" fill="rgb(224,84,62)"/>
<rect x="2144" y="160" width="8" height="8" fill="rgb(224,84,62)"/>
<rect x="2152" y="160" width="8" height="8" fill="rgb(232,165,68)"/>
<rect x="2160" y="160" width="8" height="8" fill="rgb(224,84,62)"/>
<rect x="2476" y="112" width="8" height="8" fill="rgb(224,84,62)"/>
<rect x="2484" y="112" width="8" height="8" fill="rgb(224,84,62)"/>
<rect x="2492" y="112" width="8" height="8" fill="rgb(224,84,62)"/>
<rect x="2476" y="120" width="8" height="8" fill="rgb(224,84,62)"/>
<rect x="2484" y="120" width="8" height="8" fill="rgb(224,84,62)"/>
<rect x="2492" y="120" width="8" height="8" fill="rgb(224,84,62)"/>
<rect x="2468" y="128" width="8" height="8" fill="rgb(224,84,62)"/>
<rect x="2476" y="128" width="8" height="8" fill="rgb(224,84,62)"/>
<rect x="2484" y="128" width="8" height="8" fill="rgb(224,84,62)"/>
<rect x="2492" y="128" width="8" height="8" fill="rgb(224,84,62)"/>
<rect x="2500" y="128" width="8" height="8" fill="rgb(224,84,62)"/>
<rect x="2476" y="136" width="8" height="8" fill="rgb(224,84,62)"/>
<rect x="2484" y="136" width="8" height="8" fill="rgb(224,84,62)"/>
<rect x="2492" y="136" width="8" height="8" fill="rgb(224,84,62)"/>
<rect x="2476" y="144" width="8" height="8" fill="rgb(224,84,62)"/>
<rect x="2484" y="144" width="8" height="8" fill="rgb(224,84,62)"/>
<rect x="2492" y="144" width="8" height="8" fill="rgb(224,84,62)"/>
<rect x="2476" y="152" width="8" height="8" fill="rgb(224,84,62)"/>
<rect x="2484" y="152" width="8" height="8" fill="rgb(224,84,62)"/>
<rect x="2492" y="152" width="8" height="8" fill="rgb(224,84,62)"/>
<rect x="2476" y="160" width="8" height="8" fill="rgb(224,84,62)"/>
<rect x="2484" y="160" width="8" height="8" fill="rgb(224,84,62)"/>
<rect x="2492" y="160" width="8" height="8" fill="rgb(224,84,62)"/>
<rect x="2808" y="104" width="8" height="8" fill="rgb(224,84,62)"/>
<rect x="2816" y="104" width="8" height="8" fill="rgb(224,84,62)"/>
<rect x="2824" y="104" width="8" height="8" fill="rgb(224,84,62)"/>
<rect x="2808" y="112" width="8" height="8" fill="rgb(224,84,62)"/>
<rect x="2816" y="112" width="8" height="8" fill="rgb(224,84,62)"/>
<rect x="2824" y="112" width="8" height="8" fill="rgb(224,84,62)"/>
<rect x="2800" y="120" width="8" height="8" fill="rgb(224,84,62)"/>
<rect x="2808" y="120" width="8" height="8" fill="rgb(224,84,62)"/>
<rect x="2816" y="120" width="8" height="8" fill="rgb(224,84,62)"/>
<rect x="2824" y="120" width="8" height="8" fill="rgb(224,84,62)"/>
<rect x="2832" y="120" width="8" height="8" fill="rgb(224,84,62)"/>
<rect x="2808" y="128" width="8" height="8" fill="rgb(224,84,62)"/>
<rect x="2816" y="128" width="8" height="8" fill="rgb(224,84,62)"/>
<rect x="2824" y="128" width="8" height="8" fill="rgb(224,84,62)"/>
<rect x="2808" y="136" width="8" height="8" fill="rgb(224,84,62)"/>
<rect x="2816" y="136" width="8" height="8" fill="rgb(224,84,62)"/>
<rect x="2824" y="136" width="8" height="8" fill="rgb(224,84,62)"/>
<rect x="2808" y="144" width="8" height="8" fill="rgb(224,84,62)"/>
<rect x="2816" y="144" width="8" height="8" fill="rgb(224,84,62)"/>
<rect x="2824" y="144" width="8" height="8" fill="rgb(224,84,62)"/>
<rect x="2808" y="152" width="8" height="8" fill="rgb(224,84,62)"/>
<rect x="2816" y="152" width="8" height="8" fill="rgb(224,84,62)"/>
<rect x="2824" y="152" width="8" height="8" fill="rgb(224,84,62)"/>
<rect x="2808" y="160" width="8" height="8" fill="rgb(224,84,62)"/>
<rect x="2816" y="160" width="8" height="8" fill="rgb(232,165,68)"/>
<rect x="2824" y="160" width="8" height="8" fill="rgb(224,84,62)"/>
<rect x="3140" y="96" width="8" height="8" fill="rgb(224,84,62)"/>
<rect x="3148" y="96" width="8" height="8" fill="rgb(224,84,62)"/>
<rect x="3156" y="96" width="8" height="8" fill="rgb(224,84,62)"/>
<rect x="3140" y="104" width="8" height="8" fill="rgb(224,84,62)"/>
<rect x="3148" y="104" width="8" height="8" fill="rgb(224,84,62)"/>
<rect x="3156" y="104" width="8" height="8" fill="rgb(224,84,62)"/>
<rect x="3132" y="112" width="8" height="8" fill="rgb(224,84,62)"/>
<rect x="3140" y="112" width="8" height="8" fill="rgb(224,84,62)"/>
<rect x="3148" y="112" width="8" height="8" fill="rgb(224,84,62)"/>
<rect x="3156" y="112" width="8" height="8" fill="rgb(224,84,62)"/>
<rect x="3164" y="112" width="8" height="8" fill="rgb(224,84,62)"/>
<rect x="3140" y="120" width="8" height="8" fill="rgb(224,84,62)"/>
<rect x="3148" y="120" width="8" height="8" fill="rgb(224,84,62)"/>
<rect x="3156" y="120" width="8" height="8" fill="rgb(224,84,62)"/>
<rect x="3140" y="128" width="8" height="8" fill="rgb(224,84,62)"/>
<rect x="3148" y="128" width="8" height="8" fill="rgb(224,84,62)"/>
<rect x="3156" y="128" width="8" height="8" fill="rgb(224,84,62)"/>
<rect x="3140" y="136" width="8" height="8" fill="rgb(224,84,62)"/>
<rect x="3148" y="136" width="8" height="8" fill="rgb(224,84,62)"/>
<rect x="3156" y="136" width="8" height="8" fill="rgb(224,84,62)"/>
<rect x="3140" y="144" width="8" height="8" fill="rgb(224,84,62)"/>
<rect x="3148" y="144" width="8" height="8" fill="rgb(224,84,62)"/>
<rect x="3156" y="144" width="8" height="8" fill="rgb(224,84,62)"/>
<rect x="3140" y="152" width="8" height="8" fill="rgb(224,84,62)"/>
<rect x="3148" y="152" width="8" height="8" fill="rgb(224,84,62)"/>
<rect x="3156" y="152" width="8" height="8" fill="rgb(224,84,62)"/>
<rect x="3140" y="160" width="8" height="8" fill="rgb(224,84,62)"/>
<rect x="3148" y="160" width="8" height="8" fill="rgb(224,84,62)"/>
<rect x="3156" y="160" width="8" height="8" fill="rgb(224,84,62)"/>
<rect x="3472" y="88" width="8" height="8" fill="rgb(224,84,62)"/>
<rect x="3480" y="88" width="8" height="8" fill="rgb(224,84,62)"/>
<rect x="3488" y="88" width="8" height="8" fill="rgb(224,84,62)"/>
<rect x="3472" y="96" width="8" height="8" fill="rgb(224,84,62)"/>
<rect x="3480" y="96" width="8" height="8" fill="rgb(224,84,62)"/>
<rect x="3488" y="96" width="8" height="8" fill="rgb(224,84,62)"/>
<rect x="3464" y="104" width="8" height="8" fill="rgb(224,84,62)"/>
<rect x="3472" y="104" width="8" height="8" fill="rgb(224,84,62)"/>
<rect x="3480" y="104" width="8" height="8" fill="rgb(224,84,62)"/>
<rect x="3488" y="104" width="8" height="8" fill="rgb(224,84,62)"/>
<rect x="3496" y="104" width="8" height="8" fill="rgb(224,84,62)"/>
<rect x="3472" y="112" width="8" height="8" fill="rgb(224,84,62)"/>
<rect x="3480" y="112" width="8" height="8" fill="rgb(224,84,62)"/>
<rect x="3488" y="112" width="8" height="8" fill="rgb(224,84,62)"/>
<rect x="3472" y="120" width="8" height="8" fill="rgb(224,84,62)"/>
<rect x="3480" y="120" width="8" height="8" fill="rgb(224,84,62)"/>
<rect x="3488" y="120" width="8" height="8" fill="rgb(224,84,62)"/>
<rect x="3472" y="128" width="8" height="8" fill="rgb(224,84,62)"/>
<rect x="3480" y="128" width="8" height="8" fill="rgb(224,84,62)"/>
<rect x="3488" y="128" width="8" height="8" fill="rgb(224,84,62)"/>
<rect x="3472" y="136" width="8" height="8" fill="rgb(224,84,62)"/>
<rect x="3480" y="136" width="8" height="8" fill="rgb(224,84,62)"/>
<rect x="3488" y="136" width="8" height="8" fill="rgb(224,84,62)"/>
<rect x="3472" y="144" width="8" height="8" fill="rgb(224,84,62)"/>
<rect x="3480" y="144" width="8" height="8" fill="rgb(224,84,62)"/>
<rect x="3488" y="144" width="8" height="8" fill="rgb(224,84,62)"/>
<rect x="3472" y="152" width="8" height="8" fill="rgb(224,84,62)"/>
<rect x="3480" y="152" width="8" height="8" fill="rgb(224,84,62)"/>
<rect x="3488" y="152" width="8" height="8" fill="rgb(224,84,62)"/>
<rect x="3472" y="160" width="8" height="8" fill="rgb(224,84,62)"/>
<rect x="3480" y="160" width="8" height="8" fill="rgb(232,165,68)"/>
<rect x="3488" y="160" width="8" height="8" fill="rgb(224,84,62)"/>
<rect x="3804" y="80" width="8" height="8" fill="rgb(224,84,62)"/>
<rect x="3812" y="80" width="8" height="8" fill="rgb(224,84,62)"/>
<rect x="3820" y="80" width="8" height="8" fill="rgb(224,84,62)"/>
<rect x="3804" y="88" width="8" height="8" fill="rgb(224,84,62)"/>
<rect x="3812" y="88" width="8" height="8" fill="rgb(224,84,62)"/>
<rect x="3820" y="88" width="8" height="8" fill="rgb(224,84,62)"/>
<rect x="3796" y="96" width="8" height="8" fill="rgb(224,84,62)"/>
<rect x="3804" y="96" width="8" height="8" fill="rgb(224,84,62)"/>
<rect x="3812" y="96" width="8" height="8" fill="rgb(224,84,62)"/>
<rect x="3820" y="96" width="8" height="8" fill="rgb(224,84,62)"/>
<rect x="3828" y="96" width="8" height="8" fill="rgb(224,84,62)"/>
<rect x="3804" y="104" width="8" height="8" fill="rgb(224,84,62)"/>
<rect x="3812" y="104" width="8" height="8" fill="rgb(224,84,62)"/>
<rect x="3820" y="104" width="8" height="8" fill="rgb(224,84,62)"/>
<rect x="3804" y="112" width="8" height="8" fill="rgb(224,84,62)"/>
<rect x="3812" y="112" width="8" height="8" fill="rgb(224,84,62)"/>
<rect x="3820" y="112" width="8" height="8" fill="rgb(224,84,62)"/>
<rect x="3804" y="120" width="8" height="8" fill="rgb(224,84,62)"/>
<rect x="3812" y="120" width="8" height="8" fill="rgb(224,84,62)"/>
<rect x="3820" y="120" width="8" height="8" fill="rgb(224,84,62)"/>
<rect x="3804" y="128" width="8" height="8" fill="rgb(224,84,62)"/>
<rect x="3812" y="128" width="8" height="8" fill="rgb(224,84,62)"/>
<rect x="3820" y="128" width="8" height="8" fill="rgb(224,84,62)"/>
<rect x="3804" y="136" width="8" height="8" fill="rgb(224,84,62)"/>
<rect x="3812" y="136" width="8" height="8" fill="rgb(224,84,62)"/>
<rect x="3820" y="136" width="8" height="8" fill="rgb(224,84,62)"/>
<rect x="3804" y="144" width="8" height="8" fill="rgb(224,84,62)"/>
<rect x="3812" y="144" width="8" height="8" fill="rgb(224,84,62)"/>
<rect x="3820" y="144" width="8" height="8" fill="rgb(224,84,62)"/>
<rect x="3804" y="152" width="8" height="8" fill="rgb(224,84,62)"/>
<rect x="3812" y="152" width="8" height="8" fill="rgb(224,84,62)"/>
<rect x="3820" y="152" width="8" height="8" fill="rgb(224,84,62)"/>
<rect x="3804" y="160" width="8" height="8" fill="rgb(224,84,62)"/>
<rect x="3812" y="160" width="8" height="8" fill="rgb(224,84,62)"/>
<rect x="3820" y="160" width="8" height="8" fill="rgb(224,84,62)"/>
<rect x="4136" y="72" width="8" height="8" fill="rgb(224,84,62)"/>
<rect x="4144" y="72" width="8" height="8" fill="rgb(224,84,62)"/>
<rect x="4152" y="72" width="8" height="8" fill="rgb(224,84,62)"/>
<rect x="4136" y="80" width="8" height="8" fill="rgb(224,84,62)"/>
<rect x="4144" y="80" width="8" height="8" fill="rgb(224,84,62)"/>
<rect x="4152" y="80" width="8" height="8" fill="rgb(224,84,62)"/>
<rect x="4128" y="88" width="8" height="8" fill="rgb(224,84,62)"/>
<rect x="4136" y="88" width="8" height="8" fill="rgb(224,84,62)"/>
<rect x="4144" y="88" width="8" height="8" fill="rgb(224,84,62)"/>
<rect x="4152" y="88" width="8" height="8" fill="rgb(224,84,62)"/>
<rect x="4160" y="88" width="8" height="8" fill="rgb(224,84,62)"/>
<rect x="4136" y="96" width="8" height="8" fill="rgb(224,84,62)"/>
<rect x="4144" y="96" width="8" height="8" fill="rgb(224,84,62)"/>
<rect x="4152" y="96" width="8" height="8" fill="rgb(224,84,62)"/>
<rect x="4136" y="104" width="8" height="8" fill="rgb(224,84,62)"/>
<rect x="4144" y="104" width="8" height="8" fill="rgb(224,84,62)"/>
<rect x="4152" y="104" width="8" height="8" fill="rgb(224,84,62)"/>
<rect x="4136" y="112" width="8" height="8" fill="rgb(224,84,62)"/>
<rect x="4144" y="112" width="8" height="8" fill="rgb(224,84,62)"/>
<rect x="4152" y="112" width="8" height="8" fill="rgb(224,84,62)"/>
<rect x="4136" y="120" width="8" height="8" fill="rgb(224,84,62)"/>
<rect x="4144" y="120" width="8" height="8" fill="rgb(224,84,62)"/>
<rect x="4152" y="120" width="8" height="8" fill="rgb(224,84,62)"/>
<rect x="4136" y="128" width="8" height="8" fill="rgb(224,84,62)"/>
<rect x="4144" y="128" width="8" height="8" fill="rgb(224,84,62)"/>
<rect x="4152" y="128" width="8" height="8" fill="rgb(224,84,62)"/>
<rect x="4136" y="136" width="8" height="8" fill="rgb(224,84,62)"/>
<rect x="4144" y="136" width="8" height="8" fill="rgb(224,84,62)"/>
<rect x="4152" y="136" width="8" height="8" fill="rgb(224,84,62)"/>
<rect x="4136" y="144" width="8" height="8" fill="rgb(224,84,62)"/>
<rect x="4144" y="144" width="8" height="8" fill="rgb(224,84,62)"/>
<rect x="4152" y="144" width="8" height="8" fill="rgb(224,84,62)"/>
<rect x="4136" y="152" width="8" height="8" fill="rgb(224,84,62)"/>
<rect x="4144" y="152" width="8" height="8" fill="rgb(224,84,62)"/>
<rect x="4152" y="152" width="8" height="8" fill="rgb(224,84,62)"/>
<rect x="4136" y="160" width="8" height="8" fill="rgb(224,84,62)"/>
<rect x="4144" y="160" width="8" height="8" fill="rgb(232,165,68)"/>
<rect x="4152" y="160" width="8" height="8" fill="rgb(224,84,62)"/>
<rect x="4468" y="64" width="8" height="8" fill="rgb(224,84,62)"/>
<rect x="4476" y="64" width="8" height="8" fill="rgb(224,84,62)"/>
<rect x="4484" y="64" width="8" height="8" fill="rgb(224,84,62)"/>
<rect x="4468" y="72" width="8" height="8" fill="rgb(224,84,62)"/>
<rect x="4476" y="72" width="8" height="8" fill="rgb(224,84,62)"/>
<rect x="4484" y="72" width="8" height="8" fill="rgb(224,84,62)"/>
<rect x="4468" y="80" width="8" height="8" fill="rgb(224,84,62)"/>
<rect x="4476" y="80" width="8" height="8" fill="rgb(224,84,62)"/>
<rect x="4484" y="80" width="8" height="8" fill="rgb(224,84,62)"/>
<rect x="4460" y="88" width="8" height="8" fill="rgb(224,84,62)"/>
<rect x="4468" y="88" width="8" height="8" fill="rgb(224,84,62)"/>
<rect x="4476" y="88" width="8" height="8" fill="rgb(224,84,62)"/>
<rect x="4484" y="88" width="8" height="8" fill="rgb(224,84,62)"/>
<rect x="4492" y="88" width="8" height="8" fill="rgb(224,84,62)"/>
<rect x="4468" y="96" width="8" height="8" fill="rgb(224,84,62)"/>
<rect x="4476" y="96" width="8" height="8" fill="rgb(224,84,62)"/>
<rect x="4484" y="96" width="8" height="8" fill="rgb(224,84,62)"/>
<rect x="4468" y="104" width="8" height="8" fill="rgb(224,84,62)"/>
<rect x="4476" y="104" width="8" height="8" fill="rgb(224,84,62)"/>
<rect x="4484" y="104" width="8" height="8" fill="rgb(224,84,62)"/>
<rect x="4468" y="112" width="8" height="8" fill="rgb(224,84,62)"/>
<rect x="4476" y="112" width="8" height="8" fill="rgb(224,84,62)"/>
<rect x="4484" y="112" width="8" height="8" fill="rgb(224,84,62)"/>
<rect x="4468" y="120" width="8" height="8" fill="rgb(224,84,62)"/>
<rect x="4476" y="120" width="8" height="8" fill="rgb(224,84,62)"/>
<rect x="4484" y="120" width="8" height="8" fill="rgb(224,84,62)"/>
<rect x="4468" y="128" width="8" height="8" fill="rgb(224,84,62)"/>
<rect x="4476" y="128" width="8" height="8" fill="rgb(224,84,62)"/>
<rect x="4484" y="128" width="8" height="8" fill="rgb(224,84,62)"/>
<rect x="4468" y="136" width="8" height="8" fill="rgb(224,84,62)"/>
<rect x="4476" y="136" width="8" height="8" fill="rgb(224,84,62)"/>
<rect x="4484" y="136" width="8" height="8" fill="rgb(224,84,62)"/>
<rect x="4468" y="144" width="8" height="8" fill="rgb(224,84,62)"/>
<rect x="4476" y="144" width="8" height="8" fill="rgb(224,84,62)"/>
<rect x="4484" y="144" width="8" height="8" fill="rgb(224,84,62)"/>
<rect x="4468" y="152" width="8" height="8" fill="rgb(224,84,62)"/>
<rect x="4476" y="152" width="8" height="8" fill="rgb(224,84,62)"/>
<rect x="4484" y="152" width="8" height="8" fill="rgb(224,84,62)"/>
<rect x="4468" y="160" width="8" height="8" fill="rgb(224,84,62)"/>
<rect x="4476" y="160" width="8" height="8" fill="rgb(224,84,62)"/>
<rect x="4484" y="160" width="8" height="8" fill="rgb(224,84,62)"/>
<rect x="4800" y="56" width="8" height="8" fill="rgb(224,84,62)"/>
<rect x="4808" y="56" width="8" height="8" fill="rgb(224,84,62)"/>
<rect x="4816" y="56" width="8" height="8" fill="rgb(224,84,62)"/>
<rect x="4800" y="64" width="8" height="8" fill="rgb(224,84,62)"/>
<rect x="4808" y="64" width="8" height="8" fill="rgb(224,84,62)"/>
<rect x="4816" y="64" width="8" height="8" fill="rgb(224,84,62)"/>
<rect x="4800" y="72" width="8" height="8" fill="rgb(224,84,62)"/>
<rect x="4808" y="72" width="8" height="8" fill="rgb(224,84,62)"/>
<rect x="4816" y="72" width="8" height="8" fill="rgb(224,84,62)"/>
<rect x="4792" y="80" width="8" height="8" fill="rgb(224,84,62)"/>
<rect x="4800" y="80" width="8" height="8" fill="rgb(224,84,62)"/>
<rect x="4808" y="80" width="8" height="8" fill="rgb(224,84,62)"/>
<rect x="4816" y="80" width="8" height="8" fill="rgb(224,84,62)"/>
<rect x="4824" y="80" width="8" height="8" fill="rgb(224,84,62)"/>
<rect x="4800" y="88" width="8" height="8" fill="rgb(224,84,62)"/>
<rect x="4808" y="88" width="8" height="8" fill="rgb(224,84,62)"/>
<rect x="4816" y="88" width="8" height="8" fill="rgb(224,84,62)"/>
<rect x="4800" y="96" width="8" height="8" fill="rgb(224,84,62)"/>
<rect x="4808" y="96" width="8" height="8" fill="rgb(224,84,62)"/>
<rect x="4816" y="96" width="8" height="8" fill="rgb(224,84,62)"/>
<rect x="4800" y="104" width="8" height="8" fill="rgb(224,84,62)"/>
<rect x="4808" y="104" width="8" height="8" fill="rgb(224,84,62)"/>
<rect x="4816" y="104" width="8" height="8" fill="rgb(224,84,62)"/>
<rect x="4800" y="112" width="8" height="8" fill="rgb(224,84,62)"/>
<rect x="4808" y="112" width="8" height="8" fill="rgb(224,84,62)"/>
<rect x="4816" y="112" width="8" height="8" fill="rgb(224,84,62)"/>
<rect x="4800" y="120" width="8" height="8" fill="rgb(224,84,62)"/>
<rect x="4808" y="120" width="8" height="8" fill="rgb(224,84,62)"/>
<rect x="4816" y="120" width="8" height="8" fill="rgb(224,84,62)"/>
<rect x="4800" y="128" width="8" height="8" fill="rgb(224,84,62)"/>
<rect x="4808" y="128" width="8" height="8" fill="rgb(224,84,62)"/>
<rect x="4816" y="128" width="8" height="8" fill="rgb(224,84,62)"/>
<rect x="4800" y="136" width="8" height="8" fill="rgb(224,84,62)"/>
<rect x="4808" y="136" width="8" height="8" fill="rgb(224,84,62)"/>
<rect x="4816" y="136" width="8" height="8" fill="rgb(224,84,62)"/>
<rect x="4800" y="144" width="8" height="8" fill="rgb(224,84,62)"/>
<rect x="4808" y="144" width="8" height="8" fill="rgb(224,84,62)"/>
<rect x="4816" y="144" width="8" height="8" fill="rgb(224,84,62)"/>
<rect x="4800" y="152" width="8" height="8" fill="rgb(224,84,62)"/>
<rect x="4808" y="152" width="8" height="8" fill="rgb(224,84,62)"/>
<rect x="4816" y="152" width="8" height="8" fill="rgb(224,84,62)"/>
<rect x="4800" y="160" width="8" height="8" fill="rgb(224,84,62)"/>
<rect x="4808" y="160" width="8" height="8" fill="rgb(232,165,68)"/>
<rect x="4816" y="160" width="8" height="8" fill="rgb(224,84,62)"/>
<rect x="5132" y="48" width="8" height="8" fill="rgb(224,84,62)"/>
<rect x="5140" y="48" width="8" height="8" fill="rgb(224,84,62)"/>
<rect x="5148" y="48" width="8" height="8" fill="rgb(224,84,62)"/>
<rect x="5132" y="56" width="8" height="8" fill="rgb(224,84,62)"/>
<rect x="5140" y="56" width="8" height="8" fill="rgb(224,84,62)"/>
<rect x="5148" y="56" width="8" height="8" fill="rgb(224,84,62)"/>
<rect x="5132" y="64" width="8" height="8" fill="rgb(224,84,62)"/>
<rect x="5140" y="64" width="8" height="8" fill="rgb(224,84,62)"/>
<rect x="5148" y="64" width="8" height="8" fill="rgb(224,84,62)"/>
<rect x="5124" y="72" width="8" height="8" fill="rgb(224,84,62)"/>
<rect x="5132" y="72" width="8" height="8" fill="rgb(224,84,62)"/>
<rect x="5140" y="72" width="8" height="8" fill="rgb(224,84,62)"/>
<rect x="5148" y="72" width="8" height="8" fill="rgb(224,84,62)"/>
<rect x="5156" y="72" width="8" height="8" fill="rgb(224,84,62)"/>
<rect x="5132" y="80" width="8" height="8" fill="rgb(224,84,62)"/>
<rect x="5140" y="80" width="8" height="8" fill="rgb(224,84,62)"/>
<rect x="5148" y="80" width="8" height="8" fill="rgb(224,84,62)"/>
<rect x="5132" y="88" width="8" height="8" fill="rgb(224,84,62)"/>
<rect x="5140" y="88" width="8" height="8" fill="rgb(224,84,62)"/>
<rect x="5148" y="88" width="8" height="8" fill="rgb(224,84,62)"/>
<rect x="5132" y="96" width="8" height="8" fill="rgb(224,84,62)"/>
<rect x="5140" y="96" width="8" height="8" fill="rgb(224,84,62)"/>
<rect x="5148" y="96" width="8" height="8" fill="rgb(224,84,62)"/>
<rect x="5132" y="104" width="8" height="8" fill="rgb(224,84,62)"/>
<rect x="5140" y="104" width="8" height="8" fill="rgb(224,84,62)"/>
<rect x="5148" y="104" width="8" height="8" fill="rgb(224,84,62)"/>
<rect x="5132" y="112" width="8" height="8" fill="rgb(224,84,62)"/>
<rect x="5140" y="112" width="8" height="8" fill="rgb(224,84,62)"/>
<rect x="5148" y="112" width="8" height="8" fill="rgb(224,84,62)"/>
<rect x="5132" y="120" width="8" height="8" fill="rgb(224,84,62)"/>
<rect x="5140" y="120" width="8" height="8" fill="rgb(224,84,62)"/>
<rect x="5148" y="120" width="8" height="8" fill="rgb(224,84,62)"/>
<rect x="5132" y="128" width="8" height="8" fill="rgb(224,84,62)"/>
<rect x="5140" y="128" width="8" height="8" fill="rgb(224,84,62)"/>
<rect x="5148" y="128" width="8" height="8" fill="rgb(224,84,62)"/>
<rect x="5132" y="136" width="8" height="8" fill="rgb(224,84,62)"/>
<rect x="5140" y="136" width="8" height="8" fill="rgb(224,84,62)"/>
<rect x="5148" y="136" width="8" height="8" fill="rgb(224,84,62)"/>
<rect x="5132" y="144" width="8" height="8" fill="rgb(224,84,62)"/>
<rect x="5140" y="144" width="8" height="8" fill="rgb(224,84,62)"/>
<rect x="5148" y="144" width="8" height="8" fill="rgb(224,84,62)"/>
<rect x="5132" y="152" width="8" height="8" fill="rgb(224,84,62)"/>
<rect x="5140" y="152" width="8" height="8" fill="rgb(224,84,62)"/>
<rect x="5148" y="152" width="8" height="8" fill="rgb(224,84,62)"/>
<rect x="5132" y="160" width="8" height="8" fill="rgb(224,84,62)"/>
<rect x="5140" y="160" width="8" height="8" fill="rgb(224,84,62)"/>
<rect x="5148" y="160" width="8" height="8" fill="rgb(224,84,62)"/>
<rect x="5464" y="40" width="8" height="8" fill="rgb(224,84,62)"/>
<rect x="5472" y="40" width="8" height="8" fill="rgb(224,84,62)"/>
<rect x="5480" y="40" width="8" height="8" fill="rgb(224,84,62)"/>
<rect x="5464" y="48" width="8" height="8" fill="rgb(224,84,62)"/>
<rect x="5472" y="48" width="8" height="8" fill="rgb(224,84,62)"/>
<rect x="5480" y="48" width="8" height="8" fill="rgb(224,84,62)"/>
<rect x="5464" y="56" width="8" height="8" fill="rgb(224,84,62)"/>
<rect x="5472" y="56" width="8" height="8" fill="rgb(224,84,62)"/>
<rect x="5480" y="56" width="8" height="8" fill="rgb(224,84,62)"/>
<rect x="5456" y="64" width="8" height="8" fill="rgb(224,84,62)"/>
<rect x="5464" y="64" width="8" height="8" fill="rgb(224,84,62)"/>
<rect x="5472" y="64" width="8" height="8" fill="rgb(224,84,62)"/>
<rect x="5480" y="64" width="8" height="8" fill="rgb(224,84,62)"/>
<rect x="5488" y="64" width="8" height="8" fill="rgb(224,84,62)"/>
<rect x="5464" y="72" width="8" height="8" fill="rgb(224,84,62)"/>
<rect x="5472" y="72" width="8" height="8" fill="rgb(224,84,62)"/>
<rect x="5480" y="72" width="8" height="8" fill="rgb(224,84,62)"/>
<rect x="5464" y="80" width="8" height="8" fill="rgb(224,84,62)"/>
<rect x="5472" y="80" width="8" height="8" fill="rgb(224,84,62)"/>
<rect x="5480" y="80" width="8" height="8" fill="rgb(224,84,62)"/>
<rect x="5464" y="88" width="8" height="8" fill="rgb(224,84,62)"/>
<rect x="5472" y="88" width="8" height="8" fill="rgb(224,84,62)"/>
<rect x="5480" y="88" width="8" height="8" fill="rgb(224,84,62)"/>
<rect x="5464" y="96" width="8" height="8" fill="rgb(224,84,62)"/>
<rect x="5472" y="96" width="8" height="8" fill="rgb(224,84,62)"/>
<rect x="5480" y="96" width="8" height="8" fill="rgb(224,84,62)"/>
<rect x="5464" y="104" width="8" height="8" fill="rgb(224,84,62)"/>
<rect x="5472" y="104" width="8" height="8" fill="rgb(224,84,62)"/>
<rect x="5480" y="104" width="8" height="8" fill="rgb(224,84,62)"/>
<rect x="5464" y="112" width="8" height="8" fill="rgb(224,84,62)"/>
<rect x="5472" y="112" width="8" height="8" fill="rgb(224,84,62)"/>
<rect x="5480" y="112" width="8" height="8" fill="rgb(224,84,62)"/>
<rect x="5464" y="120" width="8" height="8" fill="rgb(224,84,62)"/>
<rect x="5472" y="120" width="8" height="8" fill="rgb(224,84,62)"/>
<rect x="5480" y="120" width="8" height="8" fill="rgb(224,84,62)"/>
<rect x="5464" y="128" width="8" height="8" fill="rgb(224,84,62)"/>
<rect x="5472" y="128" width="8" height="8" fill="rgb(224,84,62)"/>
<rect x="5480" y="128" width="8" height="8" fill="rgb(224,84,62)"/>
<rect x="5464" y="136" width="8" height="8" fill="rgb(224,84,62)"/>
<rect x="5472" y="136" width="8" height="8" fill="rgb(224,84,62)"/>
<rect x="5480" y="136" width="8" height="8" fill="rgb(224,84,62)"/>
<rect x="5464" y="144" width="8" height="8" fill="rgb(224,84,62)"/>
<rect x="5472" y="144" width="8" height="8" fill="rgb(224,84,62)"/>
<rect x="5480" y="144" width="8" height="8" fill="rgb(224,84,62)"/>
<rect x="5464" y="152" width="8" height="8" fill="rgb(224,84,62)"/>
<rect x="5472" y="152" width="8" height="8" fill="rgb(224,84,62)"/>
<rect x="5480" y="152" width="8" height="8" fill="rgb(224,84,62)"/>
<rect x="5464" y="160" width="8" height="8" fill="rgb(224,84,62)"/>
<rect x="5472" y="160" width="8" height="8" fill="rgb(232,165,68)"/>
<rect x="5480" y="160" width="8" height="8" fill="rgb(224,84,62)"/>
<rect x="5796" y="32" width="8" height="8" fill="rgb(224,84,62)"/>
<rect x="5804" y="32" width="8" height="8" fill="rgb(224,84,62)"/>
<rect x="5812" y="32" width="8" height="8" fill="rgb(224,84,62)"/>
<rect x="5796" y="40" width="8" height="8" fill="rgb(224,84,62)"/>
<rect x="5804" y="40" width="8" height="8" fill="rgb(224,84,62)"/>
<rect x="5812" y="40" width="8" height="8" fill="rgb(224,84,62)"/>
<rect x="5796" y="48" width="8" height="8" fill="rgb(224,84,62)"/>
<rect x="5804" y="48" width="8" height="8" fill="rgb(224,84,62)"/>
<rect x="5812" y="48" width="8" height="8" fill="rgb(224,84,62)"/>
<rect x="5788" y="56" width="8" height="8" fill="rgb(224,84,62)"/>
<rect x="5796" y="56" width="8" height="8" fill="rgb(224,84,62)"/>
<rect x="5804" y="56" width="8" height="8" fill="rgb(224,84,62)"/>
<rect x="5812" y="56" width="8" height="8" fill="rgb(224,84,62)"/>
<rect x="5820" y="56" width="8" height="8" fill="rgb(224,84,62)"/>
<rect x="5796" y="64" width="8" height="8" fill="rgb(224,84,62)"/>
<rect x="5804" y="64" width="8" height="8" fill="rgb(224,84,62)"/>
<rect x="5812" y="64" width="8" height="8" fill="rgb(224,84,62)"/>
<rect x="5796" y="72" width="8" height="8" fill="rgb(224,84,62)"/>
<rect x="5804" y="72" width="8" height="8" fill="rgb(224,84,62)"/>
<rect x="5812" y="72" width="8" height="8" fill="rgb(224,84,62)"/>
<rect x="5796" y="80" width="8" height="8" fill="rgb(224,84,62)"/>
<rect x="5804" y="80" width="8" height="8" fill="rgb(224,84,62)"/>
<rect x="5812" y="80" width="8" height="8" fill="rgb(224,84,62)"/>
<rect x="5796" y="88" width="8" height="8" fill="rgb(224,84,62)"/>
<rect x="5804" y="88" width="8" height="8" fill="rgb(224,84,62)"/>
<rect x="5812" y="88" width="8" height="8" fill="rgb(224,84,62)"/>
<rect x="5796" y="96" width="8" height="8" fill="rgb(224,84,62)"/>
<rect x="5804" y="96" width="8" height="8" fill="rgb(224,84,62)"/>
<rect x="5812" y="96" width="8" height="8" fill="rgb(224,84,62)"/>
<rect x="5796" y="104" width="8" height="8" fill="rgb(224,84,62)"/>
<rect x="5804" y="104" width="8" height="8" fill="rgb(224,84,62)"/>
<rect x="5812" y="104" width="8" height="8" fill="rgb(224,84,62)"/>
<rect x="5796" y="112" width="8" height="8" fill="rgb(224,84,62)"/>
<rect x="5804" y="112" width="8" height="8" fill="rgb(224,84,62)"/>
<rect x="5812" y="112" width="8" height="8" fill="rgb(224,84,62)"/>
<rect x="5796" y="120" width="8" height="8" fill="rgb(224,84,62)"/>
<rect x="5804" y="120" width="8" height="8" fill="rgb(224,84,62)"/>
<rect x="5812" y="120" width="8" height="8" fill="rgb(224,84,62)"/>
<rect x="5796" y="128" width="8" height="8" fill="rgb(224,84,62)"/>
<rect x="5804" y="128" width="8" height="8" fill="rgb(224,84,62)"/>
<rect x="5812" y="128" width="8" height="8" fill="rgb(224,84,62)"/>
<rect x="5796" y="136" width="8" height="8" fill="rgb(224,84,62)"/>
<rect x="5804" y="136" width="8" height="8" fill="rgb(224,84,62)"/>
<rect x="5812" y="136" width="8" height="8" fill="rgb(224,84,62)"/>
<rect x="5796" y="144" width="8" height="8" fill="rgb(224,84,62)"/>
<rect x="5804" y="144" width="8" height="8" fill="rgb(224,84,62)"/>
<rect x="5812" y="144" width="8" height="8" fill="rgb(224,84,62)"/>
<rect x="5796" y="152" width="8" height="8" fill="rgb(224,84,62)"/>
<rect x="5804" y="152" width="8" height="8" fill="rgb(224,84,62)"/>
<rect x="5812" y="152" width="8" height="8" fill="rgb(224,84,62)"/>
<rect x="5796" y="160" width="8" height="8" fill="rgb(224,84,62)"/>
<rect x="5804" y="160" width="8" height="8" fill="rgb(224,84,62)"/>
<rect x="5812" y="160" width="8" height="8" fill="rgb(224,84,62)"/>
<rect x="6128" y="24" width="8" height="8" fill="rgb(224,84,62)"/>
<rect x="6136" y="24" width="8" height="8" fill="rgb(224,84,62)"/>
<rect x="6144" y="24" width="8" height="8" fill="rgb(224,84,62)"/>
<rect x="6128" y="32" width="8" height="8" fill="rgb(224,84,62)"/>
<rect x="6136" y="32" width="8" height="8" fill="rgb(224,84,62)"/>
<rect x="6144" y="32" width="8" height="8" fill="rgb(224,84,62)"/>
<rect x="6128" y="40" width="8" height="8" fill="rgb(224,84,62)"/>
<rect x="6136" y="40" width="8" height="8" fill="rgb(224,84,62)"/>
<rect x="6144" y="40" width="8" height="8" fill="rgb(224,84,62)"/>
<rect x="6120" y="48" width="8" height="8" fill="rgb(224,84,62)"/>
<rect x="6128" y="48" width="8" height="8" fill="rgb(224,84,62)"/>
<rect x="6136" y="48" width="8" height="8" fill="rgb(224,84,62)"/>
<rect x="6144" y="48" width="8" height="8" fill="rgb(224,84,62)"/>
<rect x="6152" y="48" width="8" height="8" fill="rgb(224,84,62)"/>
<rect x="6128" y="56" width="8" height="8" fill="rgb(224,84,62)"/>
<rect x="6136" y="56" width="8" height="8" fill="rgb(224,84,62)"/>
<rect x="6144" y="56" width="8" height="8" fill="rgb(224,84,62)"/>
<rect x="6128" y="64" width="8" height="8" fill="rgb(224,84,62)"/>
<rect x="6136" y="64" width="8" height="8" fill="rgb(224,84,62)"/>
<rect x="6144" y="64" width="8" height="8" fill="rgb(224,84,62)"/>
<rect x="6128" y="72" width="8" height="8" fill="rgb(224,84,62)"/>
<rect x="6136" y="72" width="8" height="8" fill="rgb(224,84,62)"/>
<rect x="6144" y="72" width="8" height="8" fill="rgb(224,84,62)"/>
<rect x="6128" y="80" width="8" height="8" fill="rgb(224,84,62)"/>
<rect x="6136" y="80" width="8" height="8" fill="rgb(224,84,62)"/>
<rect x="6144" y="80" width="8" height="8" fill="rgb(224,84,62)"/>
<rect x="6128" y="88" width="8" height="8" fill="rgb(224,84,62)"/>
<rect x="6136" y="88" width="8" height="8" fill="rgb(224,84,62)"/>
<rect x="6144" y="88" width="8" height="8" fill="rgb(224,84,62)"/>
<rect x="6128" y="96" width="8" height="8" fill="rgb(224,84,62)"/>
<rect x="6136" y="96" width="8" height="8" fill="rgb(224,84,62)"/>
<rect x="6144" y="96" width="8" height="8" fill="rgb(224,84,62)"/>
<rect x="6128" y="104" width="8" height="8" fill="rgb(224,84,62)"/>
<rect x="6136" y="104" width="8" height="8" fill="rgb(224,84,62)"/>
<rect x="6144" y="104" width="8" height="8" fill="rgb(224,84,62)"/>
<rect x="6128" y="112" width="8" height="8" fill="rgb(224,84,62)"/>
<rect x="6136" y="112" width="8" height="8" fill="rgb(224,84,62)"/>
<rect x="6144" y="112" width="8" height="8" fill="rgb(224,84,62)"/>
<rect x="6128" y="120" width="8" height="8" fill="rgb(224,84,62)"/>
<rect x="6136" y="120" width="8" height="8" fill="rgb(224,84,62)"/>
<rect x="6144" y="120" width="8" height="8" fill="rgb(224,84,62)"/>
<rect x="6128" y="128" width="8" height="8" fill="rgb(224,84,62)"/>
<rect x="6136" y="128" width="8" height="8" fill="rgb(224,84,62)"/>
<rect x="6144" y="128" width="8" height="8" fill="rgb(224,84,62)"/>
<rect x="6128" y="136" width="8" height="8" fill="rgb(224,84,62)"/>
<rect x="6136" y="136" width="8" height="8" fill="rgb(224,84,62)"/>
<rect x="6144" y="136" width="8" height="8" fill="rgb(224,84,62)"/>
<rect x="6128" y="144" width="8" height="8" fill="rgb(224,84,62)"/>
<rect x="6136" y="144" width="8" height="8" fill="rgb(224,84,62)"/>
<rect x="6144" y="144" width="8" height="8" fill="rgb(224,84,62)"/>
<rect x="6128" y="152" width="8" height="8" fill="rgb(224,84,62)"/>
<rect x="6136" y="152" width="8" height="8" fill="rgb(224,84,62)"/>
<rect x="6144" y="152" width="8" height="8" fill="rgb(224,84,62)"/>
<rect x="6128" y="160" width="8" height="8" fill="rgb(224,84,62)"/>
<rect x="6136" y="160" width="8" height="8" fill="rgb(232,165,68)"/>
<rect x="6144" y="160" width="8" height="8" fill="rgb(224,84,62)"/>
</svg>
